<?xml version="1.0" encoding="UTF-8" standalone="no"?>
<svg xmlns="http://www.w3.org/2000/svg" version="1.1" viewBox="0 0 10 10">
  <style>
    .shape {
      fill: rgb(127, 127, 255);
      fill-opacity: 0.5;
      stroke: rgb(127, 127, 192);
      stroke-width: 0.25;
      stroke-opacity: 0.5;
    }
  </style>
  <path class="shape" d="
    M 5 2.5
    L 7 1.5
    L 9 2.5
    L 9 4.5
    L 8 5.5
    L 9 5.5
    L 7 7.5
    L 9 7.5
    L 5 9.5
    L 6.5 8
    L 5.5 8
    L 7 6.5
    L 6 6.5
    L 8 4.5
    L 8 3
    L 5 4.5
    L 2 3
    L 2 4.5
    L 4 6.5
    L 3 6.5
    L 4.5 8
    L 3.5 8
    L 5 9.5
    L 1 7.5
    L 3 7.5
    L 1 5.5
    L 2 5.5
    L 1 4.5
    L 1 2.5
    L 3 1.5
    Z
  " />
</svg>
