<?xml version="1.0" encoding="UTF-8" standalone="no"?>
<svg xmlns="http://www.w3.org/2000/svg" version="1.1" viewBox="0 0 10 10">
  <style>
    .shape {
      fill: rgb(127, 127, 255);
      fill-opacity: 0.5;
      stroke: rgb(127, 127, 192);
      stroke-width: 0.25;
      stroke-opacity: 0.5;
    }
  </style>
  <path class="shape" d="
    M 5 0.5
    L 9 2.5
    L 9 7.5
    L 6 9
    L 6 7.5
    L 8 6
    L 8 3
    L 7 2.5
    L 7 3.5
    L 6 4
    L 6 3
    L 5 2.5
    L 4 3
    L 4 4
    L 3 3.5
    L 3 2.5
    L 2 3
    L 2 6
    L 4 7.5
    L 4 9
    L 1 7.5
    L 1 2.5
    Z
  " />

  <path class="shape" d="
    M 3 4.5
    L 4 5
    L 4 6
    L 3 5.5
    Z
  " />

  <path class="shape" d="
    M 7 4.5
    L 6 5
    L 6 6
    L 7 5.5
    Z
  " />
</svg>
